<svg t="1709708032281" class="icon" viewBox="0 0 1024 1024" version="1.1" xmlns="http://www.w3.org/2000/svg" p-id="5105" width="240" height="240"><path d="M478.16751 23.059125l331.351974 987.608111a772.535326 772.535326 0 0 0 175.730203-163.927428 98.356457 98.356457 0 0 0 13.988474-97.700747L736.407851 87.427962a135.51334 135.51334 0 0 0-120.213447-85.897973 1024.327855 1024.327855 0 0 0-124.584845 0.983565 15.627748 15.627748 0 0 0-13.442049 20.545571z" fill="#F6B71E" p-id="5106"></path><path d="M847.441363 943.89413a86.444397 86.444397 0 0 0-5.027108-16.502028 26.665528 26.665528 0 0 1-1.09285-2.622838L561.770498 64.368837A82.072999 82.072999 0 0 0 407.569431 54.642476L107.472953 706.745784c19.015582 15.409178 21.85699 54.642476 6.229242 92.2365-17.157737 40.763287-49.943223 65.570971-74.423052 55.953895l-3.715689 8.414942a47.757524 47.757524 0 0 1-3.497118 6.010672A80.652295 80.652295 0 0 0 17.750007 909.141515c-5.464248 94.750053 162.288154 80.433725 391.677268 94.968624S843.069965 1056.566916 848.315642 961.707577a52.019637 52.019637 0 0 0-0.874279-17.813447z" fill="#FFE361" p-id="5107"></path><path d="M113.702195 798.982284c15.955603-37.921878 12.786339-76.499466-6.229242-92.2365L39.606998 854.936179c24.151974 9.179936 56.93746-15.190608 74.095197-55.953895zM606.249474 303.593597A90.26937 90.26937 0 0 0 531.389282 212.340662c25.791249 50.380363 38.359018 122.399146 12.130629 179.883031a91.471505 91.471505 0 0 0 62.729563-88.630096z" fill="#F1C504" p-id="5108"></path><path d="M531.389282 212.340662a80.215155 80.215155 0 0 0-10.928496-0.87428 89.285806 89.285806 0 0 0-86.116542 92.127215A89.395091 89.395091 0 0 0 520.460786 395.830096a80.870864 80.870864 0 0 0 23.714835-3.606403C569.96687 334.739808 557.3991 262.283885 531.389282 212.340662z" fill="#FFD527" p-id="5109"></path><path d="M768.756197 253.103949c-10.163501-36.501174-35.408324-61.855283-58.686019-60.434579 24.370544 35.626894 46.55539 90.0508 45.24397 138.901174 16.502028-13.879189 22.5127-45.571825 13.442049-78.466595z" fill="#E48D00" p-id="5110"></path><path d="M710.070178 192.66937a23.277695 23.277695 0 0 0-6.119957 1.09285c-24.807684 6.994237-36.064034 44.916115-25.026254 84.695838s39.998292 66.445251 64.805976 59.341729a29.834792 29.834792 0 0 0 11.584205-6.229243c1.311419-48.850374-20.873426-103.27428-45.24397-138.901174z" fill="#EFA131" p-id="5111"></path><path d="M313.475087 625.65635a86.772252 86.772252 0 0 0-9.289221 0 106.552828 106.552828 0 0 0 0 212.996371h2.404269a182.72444 182.72444 0 0 0 19.343437-30.927641c27.430523-56.828175 21.85699-122.836286-12.458485-182.06873z" fill="#FFD527" p-id="5112"></path><path d="M409.53656 732.209178a106.006403 106.006403 0 0 0-96.061473-106.006403c34.315475 59.232444 39.889007 125.240555 12.458485 181.522305a182.72444 182.72444 0 0 1-19.343437 30.927641A106.006403 106.006403 0 0 0 409.53656 732.209178z" fill="#F1C504" p-id="5113"></path><path d="M651.602729 596.805123h-7.212807C600.020231 596.477268 564.174767 627.623479 564.174767 666.638207s36.391889 69.723799 81.089434 69.723799h1.96713a120.213447 120.213447 0 0 0 14.753468-20.217716c20.654856-37.484739 16.283458-80.54301-10.38207-119.339167z" fill="#FFD527" p-id="5114"></path><path d="M725.807211 666.638207c0-36.282604-32.785486-66.117396-73.876627-69.28666 26.337673 38.796158 30.709072 81.854429 9.50779 118.683458a120.213447 120.213447 0 0 1-14.753468 20.217716c43.823266-1.420704 79.122305-32.239061 79.122305-69.614514z" fill="#F1C504" p-id="5115"></path><path d="M549.093444 947.828388a60.325293 60.325293 0 0 0-18.687727-43.71398h-1.202135c-32.785486 0-58.795304 21.85699-58.795304 49.178228a51.691782 51.691782 0 0 0 44.478976 47.648239 67.428815 67.428815 0 0 0 34.20619-53.112487z" fill="#FFD527" p-id="5116"></path><path d="M530.405717 903.786553a60.325293 60.325293 0 0 1 18.687727 43.713981 67.428815 67.428815 0 0 1-34.20619 52.675346 68.41238 68.41238 0 0 0 14.316328 1.52999c32.785486 0 58.795304-21.85699 58.795305-49.178229s-25.681964-48.194664-57.59317-48.741088z" fill="#F1C504" p-id="5117"></path><path d="M898.258865 742.481964a66.335966 66.335966 0 0 0-27.539808-37.594024h-0.983564A49.287513 49.287513 0 0 0 837.387147 766.524653a48.631804 48.631804 0 0 0 48.959659 34.64333 69.833084 69.833084 0 0 0 11.912059-58.686019z" fill="#EFA131" p-id="5118"></path><path d="M870.719057 704.88794a66.335966 66.335966 0 0 1 27.539808 37.594024 69.833084 69.833084 0 0 1-11.802774 58.686019 48.413234 48.413234 0 0 0 43.71398-63.385272 48.631804 48.631804 0 0 0-59.451014-32.894771z" fill="#E48D00" p-id="5119"></path><path d="M842.96068 525.442049A88.083671 88.083671 0 0 0 824.819378 491.782284c-12.567769 3.934258-17.376307 25.244824-10.928496 47.538954 5.792102 19.015582 17.922732 32.785486 29.179083 33.878335a79.45016 79.45016 0 0 0-0.109285-47.757524z" fill="#EFA131" p-id="5120"></path><path d="M824.819378 491.782284a88.083671 88.083671 0 0 1 18.141302 34.096905 79.45016 79.45016 0 0 1 0 47.429669 15.299893 15.299893 0 0 0 5.901387 0c12.677054-3.934258 17.376307-25.135539 10.928495-47.538954S837.387147 487.957311 824.819378 491.782284z" fill="#E48D00" p-id="5121"></path><path d="M321.999314 407.305016a88.192956 88.192956 0 0 0-10.054216-53.331057h-0.983565c-26.774813-2.841409-51.036073 20.764141-54.642476 52.675347a56.93746 56.93746 0 0 0 30.927642 59.669584 86.772252 86.772252 0 0 0 34.752615-59.013874z" fill="#FFD527" p-id="5122"></path><path d="M311.945098 353.973959a88.192956 88.192956 0 0 1 10.054216 53.331057 86.772252 86.772252 0 0 1-34.42476 58.904589 41.200427 41.200427 0 0 0 11.584205 3.059979c26.774813 2.732124 51.036073-20.764141 54.642476-52.675347s-15.627748-59.232444-41.856137-62.620278z" fill="#F1C504" p-id="5123"></path><path d="M643.427491 482.050497a67.5381 46.33682 71.59 1 0 87.930686-29.267692 67.5381 46.33682 71.59 1 0-87.930686 29.267692Z" fill="#FFE361" p-id="5124"></path></svg>